<svg width="118" height="22" viewBox="0 0 118 22" fill="none" xmlns="http://www.w3.org/2000/svg">
<mask id="mask0_4870_4241" style="mask-type:luminance" maskUnits="userSpaceOnUse" x="0" y="0" width="118" height="22">
<path d="M0.708252 0.915855H117.947V21.084H0.708252V0.915855Z" fill="white"/>
</mask>
<g mask="url(#mask0_4870_4241)">
<path d="M116.351 18.1855H116.64C116.773 18.1998 116.891 18.1041 116.906 17.9719C116.907 17.9614 116.907 17.9507 116.907 17.9401C116.907 17.7864 116.799 17.6957 116.64 17.6957H116.351V18.1855ZM116.186 18.8461V17.5392H116.652C116.868 17.5224 117.057 17.6842 117.074 17.9006C117.075 17.9149 117.076 17.9293 117.075 17.9437C117.079 18.1147 116.971 18.2682 116.808 18.3215L117.105 18.8496H116.915L116.636 18.3482H116.35V18.8496L116.186 18.8461Z" fill="#FFF"/>
<path d="M116.625 17.0568C115.987 17.0568 115.47 17.5742 115.47 18.2124C115.47 18.8507 115.987 19.368 116.625 19.368C117.263 19.368 117.781 18.8507 117.781 18.2124C117.781 17.5742 117.263 17.0568 116.625 17.0568ZM116.625 19.5352C115.895 19.5352 115.302 18.9429 115.302 18.2124C115.302 17.4818 115.895 16.8897 116.625 16.8897C117.356 16.8897 117.948 17.4818 117.948 18.2124C117.947 18.9425 117.355 19.5342 116.625 19.5352Z" fill="#FFF"/>
<path d="M29.4216 19.3555V4.49694H23.8685V2.3955H37.1509V4.49694H31.5977V19.3555H29.4216Z" fill="#FFF"/>
<path d="M35.1482 19.3555V6.99929H37.1999V8.77716C37.9501 7.65177 39.1511 6.99929 40.977 6.99929H41.777V9.09895H40.777C38.2755 9.09895 37.2746 10.5497 37.2746 12.5507V19.3555H35.1482Z" fill="#FFF"/>
<path d="M42.8037 13.9518V6.99772H44.93V13.8522C44.93 16.2034 46.2554 17.6045 48.308 17.6045C50.3605 17.6045 51.6859 16.2034 51.6859 13.8522V6.99772H53.8122V13.9518C53.8122 17.4293 51.5606 19.6055 48.3088 19.6055C45.0571 19.6055 42.8055 17.4293 42.8055 13.9518" fill="#FFF"/>
<path d="M56.8889 12.0757H64.7435C64.4937 10.12 62.9923 8.69771 60.8162 8.69771C58.8152 8.69771 57.2889 10.0231 56.8889 12.0757ZM54.6861 13.1762C54.6861 9.5742 57.3627 6.74739 60.8392 6.74739C64.3949 6.74739 66.9187 9.39908 66.9187 13.001C66.9264 13.3021 66.9095 13.6033 66.868 13.9015H56.8373C57.112 16.203 58.7636 17.6537 60.9895 17.6537C62.7158 17.6537 64.0412 16.7781 64.7666 15.4314L66.5178 16.4092C65.3426 18.4111 63.3176 19.6094 60.9895 19.6094C57.4125 19.6094 54.6861 16.7826 54.6861 13.1806" fill="#FFF"/>
<path d="M68.0183 19.3555V6.99929H70.07V8.29891C70.8958 7.32108 72.1963 6.74772 73.7723 6.74772C75.6231 6.74772 77.1245 7.54776 77.9245 9.02428C78.8509 7.62341 80.5024 6.74772 82.4279 6.74772C85.4299 6.74772 87.5304 8.84925 87.5304 12.2014V19.3555H85.4041V12.3756C85.4041 10.0999 84.1533 8.74871 82.1524 8.74871C80.1763 8.74871 78.8508 10.171 78.8508 12.3756V19.3555H76.7244V12.3756C76.7244 10.0999 75.4728 8.74871 73.4719 8.74871C71.4958 8.74871 70.1446 10.171 70.1446 12.3756V19.3555H68.0183Z" fill="#FFF"/>
<path d="M90.6069 12.0801H98.4616C98.2118 10.1245 96.7113 8.70216 94.5343 8.70216C92.5333 8.70216 91.007 10.0276 90.6069 12.0801ZM88.4059 13.1762C88.4059 9.5742 91.0826 6.74739 94.5591 6.74739C98.1149 6.74739 100.639 9.39908 100.639 13.001C100.646 13.3021 100.629 13.6033 100.588 13.9015H90.5572C90.8318 16.203 92.4835 17.6537 94.7094 17.6537C96.4357 17.6537 97.7611 16.7782 98.4873 15.4314L100.238 16.4092C99.0625 18.4111 97.0376 19.6094 94.7094 19.6094C91.1323 19.6094 88.4059 16.7826 88.4059 13.1806" fill="#FFF"/>
<path d="M112.27 13.1757C112.27 10.5978 110.444 8.74794 107.943 8.74794C105.442 8.74794 103.616 10.5987 103.616 13.1757C103.616 15.7527 105.442 17.6036 107.943 17.6036C110.444 17.6036 112.269 15.7527 112.269 13.1757M101.489 13.1757C101.489 9.57376 104.166 6.74695 107.793 6.74695C109.644 6.74695 111.245 7.52211 112.246 8.79773V2.3974H114.372V19.3547H112.321V17.4782C111.343 18.8045 109.694 19.6045 107.793 19.6045C104.166 19.6045 101.489 16.7778 101.489 13.1757Z" fill="#FFF"/>
<path d="M10.7123 4.62428C9.70488 4.62428 8.88821 5.44094 8.88821 6.44837C8.88821 7.4558 9.70488 8.27246 10.7123 8.27246C11.7197 8.27246 12.5364 7.4558 12.5364 6.44837C12.5354 5.4413 11.7193 4.62525 10.7123 4.62428Z" fill="#FFF"/>
<path d="M10.211 11.5307L4.94493 17.0288C3.68442 15.8134 2.83949 14.2312 2.53059 12.5077C2.47165 12.1844 2.43129 11.8579 2.40969 11.5298L10.211 11.5307ZM2.47014 9.84176C2.97452 6.25331 5.72026 3.39112 9.28471 2.73829C9.78793 2.64619 10.2985 2.59979 10.8101 2.59962C14.9947 2.60815 18.5341 5.69684 19.1092 9.84176H2.47014ZM15.2948 18.0963C12.5398 19.8364 9.02807 19.8301 6.27922 18.0804L10.779 13.3824L15.2948 18.0963ZM19.175 11.5307C19.08 13.0534 18.5714 14.5214 17.7038 15.7763C17.3872 16.2335 17.0267 16.6587 16.6273 17.0457L11.3453 11.5343L19.175 11.5307ZM16.5313 2.70273C11.9494 -0.464006 5.66781 0.68334 2.50116 5.26526C-0.665576 9.84727 0.481771 16.1288 5.06369 19.2955C9.6433 22.4605 15.9212 21.3162 19.0896 16.739C22.2535 12.1553 21.1089 5.87534 16.5313 2.70273Z" fill="#FFF"/>
</g>
</svg>
